<svg width="114" height="58" xmlns="http://www.w3.org/2000/svg" xmlns:xlink="http://www.w3.org/1999/xlink"><defs><path d="M8.303 39c.7 0 1.355-.131 2.054-.306 1.399-.437 2.753-1.18 3.933-2.01 1.355-.962 2.579-2.054 3.715-3.234 1.18-1.224 2.185-2.579 3.147-3.977.961-1.398 1.791-2.84 2.578-4.37.087-.088.131-.262.131-.393 0-.132-.044-.219-.218-.219h-.175c-.35 0-.787.175-1.093.306-.655.306-1.267.655-1.792 1.092-.393.35-.917.743-1.136 1.224a45.33 45.33 0 0 1-3.059 5.026l-1.88 2.272a.094.094 0 0 0-.087.088l-.786.786c-.131.044-.219.131-.306.219-.087 0-.044.044-.131.044-.088.043-.131.087-.219.087-.218.044-.48.087-.743.087a7.4 7.4 0 0 1-3.54-1.048c-1.835-1.093-3.102-2.885-3.714-4.939-.131-.48-.262-.918-.306-1.398a14.864 14.864 0 0 1-.131-1.967c0-3.234 1.005-6.511 2.229-9.483 1.005-2.491 2.229-5.026 3.802-7.255a24.38 24.38 0 0 1 1.005-1.18c0-.043.044-.087.087-.13.219 0 .394-.044.612-.044.787 0 1.573.306 2.273.699 1.704 1.005 2.971 2.622 4.108 4.239a.903.903 0 0 0 .174.262c.044.088.175.131.306.131.219 0 .525-.087.656-.13a7.183 7.183 0 0 0 1.704-.919c.525-.35 1.049-.743 1.442-1.223.088-.131.394-.481.394-.743 0-.044 0-.131-.044-.175-1.093-1.617-2.404-3.321-4.108-4.414-.787-.524-1.704-.918-2.666-1.005h-.306c-1.486 0-2.928.568-4.239 1.311-1.879 1.049-3.583 2.578-4.938 4.283-1.399 1.748-2.491 3.714-3.452 5.725-1.137 2.36-2.142 4.807-2.841 7.342C.306 25.365 0 27.157 0 28.905v.35c0 2.578.7 5.2 2.535 7.123 1.267 1.31 3.015 2.272 4.807 2.535.35.043.655.087.961.087z" id="a"/><path d="M28.223 24.058c.468-.064.873-.285 1.247-.507.468-.286.935-.603 1.31-.983l.311-.318c.156-.158.25-.348.312-.57-.094-.761-.094-1.554-.094-2.315-.031-1.268-.062-2.505-.062-3.774 0-1.11-.031-2.188-.031-3.297.03-.127.436-.317.56-.413l.375-.253a2.01 2.01 0 0 0 .436-.254l.655-.285.53-.064c.249.032.53.127.779.222.53.38.78 1.078.904 1.776.062.349.062.73.062 1.078v4.059c.062 1.11.062 2.188.062 3.298v1.997c0 .222.094.286.281.286.374 0 1.06-.349 1.31-.508.373 0 1.121-.729 1.402-1.014l.311-.317c.125-.19.25-.35.312-.571.031-.761.031-1.554.031-2.315-.03-1.237-.03-2.473-.03-3.678 0-.634-.032-1.269-.032-1.871.717-.57 1.371-1.237 2.057-1.84l.25-.253c.187-.032.374-.317.53-.412l.405-.349c.124 0 .187-.127.249-.158l.094-.064h.218a.85.85 0 0 1 .405.095c.436.286.592.856.686 1.364.062.349.062.666.062 1.014v4.028c.062 1.078.062 2.22.062 3.36v2.062c0 .222.094.285.28.285.375 0 1.06-.349 1.31-.475.332 0 .96-.602 1.293-.936l.421-.428c.125-.158.25-.349.312-.539.031-.793.031-1.554.031-2.346-.031-1.237-.031-2.474-.031-3.679l-.062-3.107c0-.698 0-1.396-.187-2.093-.094-.349-.312-.761-.624-.951-.311-.222-.592-.286-.935-.286-.156 0-.28 0-.405.032-.686.063-1.31.349-1.901.634-.748.38-1.465.856-2.151 1.332-.81.602-1.62 1.268-2.4 1.966 0-.57-.094-1.173-.25-1.776-.342-1.141-1.153-1.522-2.088-1.522-1.34 0-3.023.856-4.02 1.364-.53.317-1.06.666-1.56 1.046 0-.761 0-1.459.032-2.156 0-.222.031-.412.031-.603 0-.031-.125-.285-.28-.285-.406 0-1.123.38-1.34.476-.219 0-1.185.856-1.372 1.046-.28.285-.592.602-.624.856-.062.761-.062 1.522-.062 2.283v3.742c0 2.315 0 4.693.125 7.008l.093.602c0 .032 0 .095.031.19.063.064.125.096.25.096.03 0 .093 0 .124-.032zm23.752.127c1.278 0 2.556-.571 3.584-1.332 1.154-.825 2.057-1.934 2.837-3.14.28-.475.592-.982.81-1.49.062 1.364.125 2.696.25 4.027v.508l.03.095c0 .349.094.761.219 1.11 0 .063.062.095.156.095.156 0 .436-.095.498-.095.374-.127.78-.349 1.123-.603.342-.253.685-.507.966-.824 0-.032.25-.317.25-.508 0-.031 0-.095-.032-.126l-.094-.413-.155-1.68c0-.064-.032-.095-.032-.159v-.666a105.784 105.784 0 0 1-.155-3.139 115.57 115.57 0 0 1-.063-3.298c0-.856 0-1.68.063-2.505l.093-.666c0-.253-.156-.412-.28-.507-.967-.57-2.089-.92-3.18-.92-.25 0-.53 0-.779.064-.935.158-1.745.539-2.556 1.046-.748.413-1.34 1.015-1.932 1.68-.53.572-.998 1.238-1.434 1.903-.468.73-.873 1.46-1.247 2.22-.717 1.459-1.31 2.98-1.465 4.63-.031.349-.062.729-.062 1.078 0 .76.124 1.554.436 2.251.343.698 1.029 1.269 1.808 1.332.125 0 .218.032.343.032zm1.683-2.569c-.031 0-.094-.031-.125-.031a.735.735 0 0 1-.28-.19 2.484 2.484 0 0 1-.53-.825 6.357 6.357 0 0 1-.187-1.522c0-.222 0-.412.031-.634.093-1.015.405-2.03.78-3.013A18.584 18.584 0 0 1 55.06 12.2c.249-.381.56-.761.872-1.11l.343-.317.156-.096c.062-.031.062-.063.094-.063l.187-.063c.155-.032.249-.032.405-.032.311 0 .685.063.997.158.405.127.81.286 1.185.508a.606.606 0 0 0-.063.254l-.093.158c-.78 1.744-1.34 3.583-2.057 5.359-.468 1.142-.998 2.251-1.621 3.266-.218.285-.437.57-.686.824-.062.096-.187.19-.28.286l-.156.095c-.032.032-.063.063-.125.063a.438.438 0 0 1-.187.064l-.374.063zM67.747 8.71c.311-.19.935-.507 1.309-.507.03 0 .093-.032.124-.032a4.35 4.35 0 0 1 .873-.095c.25 0 .374-.285.468-.444.187-.38.311-.792.405-1.173.093-.412.156-.856.156-1.268 0-.095-.031-.603-.218-.603a7.15 7.15 0 0 0-1.434.254c-.405.127-.81.254-1.185.444-.218.158-.374.507-.467.73a6.99 6.99 0 0 0-.343 1.331c0 .063-.062.38-.062.698 0 .348.062.697.249.697.031 0 .093 0 .125-.032zm-2.743 22.26c.218 0 .405 0 .623-.031a5.757 5.757 0 0 0 2.026-.603c1.122-.57 2.213-1.331 2.93-2.41.436-.665.499-1.522.561-2.283v-.19c.125-1.427.156-2.854.156-4.28 0-.857-.031-1.745-.031-2.6 0-2.252-.125-4.535-.28-6.818-.032-.603-.063-1.205-.157-1.808 0-.032 0-.095-.03-.158a.28.28 0 0 0-.219-.096c-.062 0-.093 0-.156.032-.374.064-.748.254-1.09.444a5.55 5.55 0 0 0-1.185.888l-.28.285a1.616 1.616 0 0 0-.281.508c.093.602.124 1.236.156 1.87v.16c.062.982.124 1.965.155 2.948.063 2.061.125 4.09.125 6.152v1.332c0 .95-.031 1.902-.125 2.885a6.5 6.5 0 0 1-.093 1.078c0 .095-.031.222-.031.317-1.496-.031-2.899-.412-4.115-1.141a5.502 5.502 0 0 1-1.246-1.015.35.35 0 0 0-.25-.095c-.156 0-.311.063-.436.095-.436.159-.842.38-1.216.666-.374.254-.748.54-1.028.888-.063.063-.28.349-.28.539 0 .063 0 .095.03.127.717.824 1.777 1.395 2.837 1.776a8.432 8.432 0 0 0 2.93.539z" id="b"/><path d="M76.302 22.941c.372-.062.744-.25 1.084-.437.434-.25.836-.532 1.177-.876.278-.25.495-.5.557-.78l.093-.22c.186-.437.402-.844.62-1.281.37-.657.742-1.313 1.145-1.938a199.457 199.457 0 0 1 3.127-5.063l6.409-9.877 1.393-2A.285.285 0 0 0 92 .25c0-.062 0-.094-.031-.156C91.939.03 91.845 0 91.752 0a1.74 1.74 0 0 0-.464.094 1.752 1.752 0 0 1-.372.125c-1.888.437-3.9.594-5.851.625-1.084 0-2.199-.063-3.282-.188-.898-.093-1.796-.28-2.632-.625h-.248c-.216.032-.433.125-.65.219-.464.219-.898.469-1.27.781-.309.25-.619.532-.804.876a.502.502 0 0 0-.093.25c0 .093.03.125.155.187 1.052.469 2.229.625 3.343.719a36.15 36.15 0 0 0 2.601.094c.62 0 1.239 0 1.858-.031 1.455-.094 2.941-.25 4.365-.563-.216.344-.464.688-.68 1.063a333.246 333.246 0 0 0-2.818 4.219l-3.499 5.376a236.494 236.494 0 0 0-3.25 5.157c-.682 1.156-1.425 2.313-1.982 3.563-.093.25-.217.5-.279.781 0 .188.124.22.248.22h.154z" id="c"/></defs><g transform="translate(11 9)"><use xlink:href="#a"/><use xlink:href="#a"/></g><g transform="translate(11 9)"><use xlink:href="#b"/><use xlink:href="#b"/></g><g transform="translate(11 9)"><use xlink:href="#c"/><use xlink:href="#c"/></g></svg>