<svg xmlns="http://www.w3.org/2000/svg" width="84" height="84" viewBox="0 0 84 84">
  <g fill="none" fill-rule="evenodd">
    <circle cx="42" cy="42" r="42" fill="#FFF"/>
    <g fill-rule="nonzero" transform="translate(29 17)">
      <path fill="#2A9CE6" d="M6.03448276,-3.82835387e-16 C4.43368078,-0.00116757504 2.89810799,0.634231516 1.76616976,1.76616976 C0.634231516,2.89810799 -0.00116757504,4.43368078 1.53134197e-15,6.03448276 L1.53134197e-15,49.137931 C0.00137309478,49.6134686 0.386531338,49.9986269 0.862068966,50 L11.2068966,50 C11.6824341,49.9986269 12.0675924,49.6134686 12.0689655,49.137931 L12.0689655,6.03448276 C12.0701331,4.43368078 11.434734,2.89810799 10.3027958,1.76616976 C9.1708575,0.634231516 7.63528474,-0.00116757504 6.03448276,-3.82835387e-16 Z M6.03448276,4.31034483 C6.98669784,4.31034483 7.75862069,5.08226767 7.75862069,6.03448276 C7.75862069,6.98669784 6.98669784,7.75862069 6.03448276,7.75862069 C5.08226767,7.75862069 4.31034483,6.98669784 4.31034483,6.03448276 C4.3131381,5.08342709 5.08342709,4.3131381 6.03448276,4.31034483 Z"/>
      <path fill="#2C3E50" d="M12.0689655 23.2758621L12.0689655 25 5.17241379 25C4.69630625 25 4.31034483 24.6140385 4.31034483 24.137931 4.31034483 23.6618235 4.69630625 23.2758621 5.17241379 23.2758621L12.0689655 23.2758621zM12.0689655 14.6551724L12.0689655 16.3793103 9.48275862 16.3793103C9.00665112 16.3793103 8.62068966 15.9933489 8.62068966 15.5172414 8.62068966 15.0411339 9.00665112 14.6551724 9.48275862 14.6551724L12.0689655 14.6551724zM6.03448276 16.3793103C5.80628376 16.3758975 5.58774699 16.286636 5.42241379 16.1293103 5.38551406 16.0881973 5.35097584 16.0450246 5.31896552 16 5.28616544 15.9520459 5.26006257 15.8998401 5.24137931 15.8448276 5.21651794 15.7959167 5.19891912 15.743643 5.18913793 15.6896552 5.17941672 15.6326619 5.17382745 15.5750405 5.17241379 15.5172414 5.16922756 15.4041335 5.19286035 15.2918778 5.24137931 15.1896552 5.2850738 15.0852052 5.34630025 14.9889922 5.42241379 14.9051724 5.76808809 14.5861081 6.30087742 14.5861081 6.64655172 14.9051724 6.72266527 14.9889922 6.78389172 15.0852052 6.82758621 15.1896552 6.87175946 15.2932951 6.89518966 15.4045885 6.89655172 15.5172414 6.89471749 15.7457597 6.80522818 15.9648543 6.64655172 16.1293103 6.48112503 16.2864914 6.26264728 16.3757288 6.03448276 16.3793103zM12.0689655 18.9655172L12.0689655 20.6896552 9.48275862 20.6896552C9.00665112 20.6896552 8.62068966 20.3036937 8.62068966 19.8275862 8.62068966 19.3514787 9.00665112 18.9655172 9.48275862 18.9655172L12.0689655 18.9655172zM6.03448276 20.6896552C5.62815491 20.6856002 5.2810337 20.3956249 5.20473204 19.9965049 5.1284304 19.5973848 5.34411061 19.1998162 5.72028919 19.0461658 6.09646776 18.8925154 6.52881128 19.0253983 6.75375338 19.363806 6.97869548 19.7022138 6.93384832 20.1522888 6.64655172 20.4396552 6.48121853 20.5969809 6.26268176 20.6862423 6.03448276 20.6896552zM12.0689655 40.5172414L12.0689655 42.2413793 5.17241379 42.2413793C4.69630625 42.2413793 4.31034483 41.8554178 4.31034483 41.3793103 4.31034483 40.9032028 4.69630625 40.5172414 5.17241379 40.5172414L12.0689655 40.5172414zM12.0689655 27.5862069L12.0689655 29.3103448 9.48275862 29.3103448C9.00665112 29.3103448 8.62068966 28.9243834 8.62068966 28.4482759 8.62068966 27.9721684 9.00665112 27.5862069 9.48275862 27.5862069L12.0689655 27.5862069zM6.03448276 29.3103448C5.80628376 29.306932 5.58774699 29.2176705 5.42241379 29.0603448 5.38551406 29.0192318 5.35097584 28.9760591 5.31896552 28.9310345 5.28616544 28.8830803 5.26006257 28.8308746 5.24137931 28.7758621 5.21651794 28.7269512 5.19891912 28.6746775 5.18913793 28.6206897 5.17941672 28.5636964 5.17382745 28.506075 5.17241379 28.4482759 5.16922756 28.335168 5.19286035 28.2229122 5.24137931 28.1206897 5.2850738 28.0162397 5.34630025 27.9200266 5.42241379 27.8362069 5.76808809 27.5171426 6.30087742 27.5171426 6.64655172 27.8362069 6.72266527 27.9200266 6.78389172 28.0162397 6.82758621 28.1206897 6.87175946 28.2243296 6.89518966 28.335623 6.89655172 28.4482759 6.89471749 28.6767942 6.80522818 28.8958888 6.64655172 29.0603448 6.48112503 29.2175259 6.26264728 29.3067633 6.03448276 29.3103448zM12.0689655 31.8965517L12.0689655 33.6206897 9.48275862 33.6206897C9.00665112 33.6206897 8.62068966 33.2347282 8.62068966 32.7586207 8.62068966 32.2825132 9.00665112 31.8965517 9.48275862 31.8965517L12.0689655 31.8965517zM6.03448276 33.6206897C5.80514195 33.6230182 5.58451582 33.5329412 5.42233902 33.3707644 5.26016222 33.2085876 5.17008528 32.9879615 5.17241379 32.7586207 5.16922756 32.6455128 5.19286035 32.5332571 5.24137931 32.4310345 5.28294169 32.3254847 5.34440103 32.2289058 5.42241379 32.1465517 5.76808809 31.8274874 6.30087742 31.8274874 6.64655172 32.1465517 6.72456448 32.2289058 6.78602383 32.3254847 6.82758621 32.4310345 6.87175946 32.5346744 6.89518966 32.6459678 6.89655172 32.7586207 6.89888024 32.9879615 6.8088033 33.2085876 6.6466265 33.3707644 6.4844497 33.5329412 6.26382357 33.6230182 6.03448276 33.6206897zM12.0689655 36.2068966L12.0689655 37.9310345 9.48275862 37.9310345C9.00665112 37.9310345 8.62068966 37.545073 8.62068966 37.0689655 8.62068966 36.592858 9.00665112 36.2068966 9.48275862 36.2068966L12.0689655 36.2068966zM6.03448276 37.9310345C5.80628376 37.9276216 5.58774699 37.8383602 5.42241379 37.6810345 5.34453074 37.5985793 5.28308823 37.5020268 5.24137931 37.3965517 5.19283851 37.2943366 5.16920459 37.1820754 5.17241379 37.0689655 5.17241379 36.592858 5.55837522 36.2068966 6.03448276 36.2068966 6.5105903 36.2068966 6.89655172 36.592858 6.89655172 37.0689655 6.89518966 37.1816184 6.87175946 37.2929118 6.82758621 37.3965517 6.78587728 37.5020268 6.72443478 37.5985793 6.64655172 37.6810345 6.48112503 37.8382155 6.26264728 37.9274529 6.03448276 37.9310345zM12.0689655 44.8275862L12.0689655 46.5517241 9.48275862 46.5517241C9.00665112 46.5517241 8.62068966 46.1657627 8.62068966 45.6896552 8.62068966 45.2135477 9.00665112 44.8275862 9.48275862 44.8275862L12.0689655 44.8275862zM6.03448276 46.5517241C5.80628376 46.5483113 5.58774699 46.4590498 5.42241379 46.3017241 5.38551406 46.2606111 5.35097584 46.2174384 5.31896552 46.1724138 5.28616544 46.1244597 5.26006257 46.0722539 5.24137931 46.0172414 5.21651794 45.9683305 5.19891912 45.9160568 5.18913793 45.862069 5.17941672 45.8050757 5.17382745 45.7474543 5.17241379 45.6896552 5.16922756 45.5765473 5.19286035 45.4642916 5.24137931 45.362069 5.2850738 45.257619 5.34630025 45.1614059 5.42241379 45.0775862 5.76808809 44.7585219 6.30087742 44.7585219 6.64655172 45.0775862 6.72266527 45.1614059 6.78389172 45.257619 6.82758621 45.362069 6.87175946 45.4657089 6.89518966 45.5770023 6.89655172 45.6896552 6.89471749 45.9181735 6.80522818 46.1372681 6.64655172 46.3017241 6.48112503 46.4589052 6.26264728 46.5481426 6.03448276 46.5517241zM6.03448276 3.44827586C4.98845972 3.44827586 4.04543483 4.07838494 3.64513914 5.04478422 3.24484345 6.01118351 3.46610834 7.12355721 4.20575833 7.86320719 4.94540831 8.60285718 6.05778201 8.82412207 7.02418129 8.42382638 7.99058058 8.02353069 8.62068966 7.0805058 8.62068966 6.03448276 8.61652328 4.60788946 7.46107606 3.45244223 6.03448276 3.44827586zM6.03448276 6.89655172C5.55837522 6.89655172 5.17241379 6.5105903 5.17241379 6.03448276 5.17241379 5.55837522 5.55837522 5.17241379 6.03448276 5.17241379 6.5105903 5.17241379 6.89655172 5.55837522 6.89655172 6.03448276 6.89517863 6.51002039 6.51002039 6.89517863 6.03448276 6.89655172z"/>
      <rect width="5.172" height="3.448" x="18.966" y="37.069" fill="#BDC3C7"/>
      <rect width="6.897" height="29.31" x="18.966" y="7.759" fill="#E57E25"/>
      <rect width="4.31" height="29.31" x="18.966" y="7.759" fill="#F0C419"/>
      <path fill="#CBB292" d="M22.4137931,7.75862069 C22.4137931,8.71083578 21.6418703,9.48275862 20.6896552,9.48275862 C19.7374401,9.48275862 18.9655172,8.71083578 18.9655172,7.75862069 L21.6133621,0.541896552 C21.7442655,0.214578307 22.0612694,-5.82773592e-05 22.4137931,-5.82773592e-05 C22.7663168,-5.82773592e-05 23.0833207,0.214578307 23.2142241,0.541896552 L25.862069,7.75862069 C25.862069,8.71083578 25.0901461,9.48275862 24.137931,9.48275862 C23.1857159,9.48275862 22.4137931,8.71083578 22.4137931,7.75862069"/>
      <rect width="2.586" height="3.448" x="23.276" y="37.069" fill="#95A5A5"/>
      <path fill="#F3D55B" d="M22.4137931 31.8965517C21.9376856 31.8965517 21.5517241 32.2825132 21.5517241 32.7586207L21.5517241 33.6206897C21.5517241 34.0967972 21.9376856 34.4827586 22.4137931 34.4827586 22.8899006 34.4827586 23.2758621 34.0967972 23.2758621 33.6206897L23.2758621 32.7586207C23.2758621 32.2825132 22.8899006 31.8965517 22.4137931 31.8965517zM22.4137931 12.0689655C21.9376856 12.0689655 21.5517241 12.454927 21.5517241 12.9310345L21.5517241 29.3103448C21.5517241 29.7864523 21.9376856 30.1724138 22.4137931 30.1724138 22.8899006 30.1724138 23.2758621 29.7864523 23.2758621 29.3103448L23.2758621 12.9310345C23.2758621 12.454927 22.8899006 12.0689655 22.4137931 12.0689655z"/>
      <path fill="#FF5364" d="M25.862069,47.4137931 L25.8620713,40.5172414 L18.9655172,40.5172414 L18.9655172,47.4137931 C18.9655172,47.5 18.9741379,47.5948276 18.9827586,47.6810345 C18.9860435,47.7505627 18.9946899,47.8197336 19.0086207,47.887931 C19.0290922,47.9869801 19.0549934,48.0848289 19.0862069,48.1810345 C19.1097234,48.2632639 19.1385188,48.3438909 19.1724138,48.4224138 C19.1982759,48.4913793 19.2327586,48.5603448 19.2586207,48.6206897 C19.2844828,48.6551724 19.3017241,48.6982759 19.3275862,48.7327586 C19.362069,48.7931034 19.4051724,48.8534483 19.4482759,48.9137931 C19.5281473,49.0326172 19.6206395,49.1424516 19.7241379,49.2413793 C19.7758621,49.2931034 19.8362069,49.3534483 19.8965517,49.4051724 C20.0125321,49.499232 20.136575,49.5828888 20.2672414,49.6551724 C20.3217764,49.6918491 20.3794766,49.7235842 20.4396552,49.75 C20.5951898,49.8215598 20.7567359,49.8792549 20.9224138,49.9224138 C20.9827586,49.9310345 21.0517241,49.9482759 21.1206897,49.9568966 C21.1734758,49.9745393 21.2288288,49.9832792 21.2844828,49.9827586 C21.3706897,49.9913793 21.4655172,50 21.5517241,50 L23.2758621,50 C23.9620474,50.0009167 24.6203921,49.7287366 25.1055988,49.2435298 C25.5908055,48.7583231 25.8629857,48.0999784 25.862069,47.4137931 Z"/>
      <path fill="#FB7B76" d="M23.2758621,47.4137931 L23.2758701,40.5172414 L18.9655172,40.5172414 L18.9655172,47.4137931 C18.9655172,47.5 18.9741379,47.5948276 18.9827586,47.6810345 C18.9860435,47.7505627 18.9946899,47.8197336 19.0086207,47.887931 C19.0290922,47.9869801 19.0549934,48.0848289 19.0862069,48.1810345 C19.1097234,48.2632639 19.1385188,48.3438909 19.1724138,48.4224138 C19.1982759,48.4913793 19.2327586,48.5603448 19.2586207,48.6206897 C19.2844828,48.6551724 19.3017241,48.6982759 19.3275862,48.7327586 C19.362069,48.7931034 19.4051724,48.8534483 19.4482759,48.9137931 C19.5281473,49.0326172 19.6206395,49.1424516 19.7241379,49.2413793 C19.7758621,49.2931034 19.8362069,49.3534483 19.8965517,49.4051724 C20.0125321,49.499232 20.136575,49.5828888 20.2672414,49.6551724 C20.3217764,49.6918491 20.3794766,49.7235842 20.4396552,49.75 C20.5951898,49.8215598 20.7567359,49.8792549 20.9224138,49.9224138 C20.9827586,49.9310345 21.0517241,49.9482759 21.1206897,49.9568966 C22.3658682,49.7530253 23.2789852,48.6755472 23.2758621,47.4137931 Z"/>
      <path fill="#2C3E50" d="M24.4137931,3.81896552 L23.2155172,0.543103448 C23.0845441,0.215098972 22.7669798,-4.17831286e-05 22.4137931,-4.17831286e-05 C22.0606064,-4.17831286e-05 21.7430421,0.215098972 21.612069,0.543103448 L20.4137931,3.81896552 C21.6666418,4.47413845 23.1609444,4.47413845 24.4137931,3.81896552 Z"/>
    </g>
  </g>
</svg>
